<mxfile host="Electron" agent="Mozilla/5.0 (Windows NT 10.0; Win64; x64) AppleWebKit/537.36 (KHTML, like Gecko) draw.io/26.0.4 Chrome/128.0.6613.186 Electron/32.2.5 Safari/537.36" version="26.0.4" pages="6">
  <diagram name="회원가입 SD" id="2YBvvXClWsGukQMizWep">
    <mxGraphModel dx="1434" dy="836" grid="1" gridSize="10" guides="1" tooltips="1" connect="1" arrows="1" fold="1" page="1" pageScale="1" pageWidth="850" pageHeight="1100" math="0" shadow="0">
      <root>
        <mxCell id="0" />
        <mxCell id="1" parent="0" />
        <mxCell id="l3b0Gciy4JCBGXE4uqzS-1" value="클라이언트" style="shape=umlLifeline;perimeter=lifelinePerimeter;whiteSpace=wrap;html=1;container=1;dropTarget=0;collapsible=0;recursiveResize=0;outlineConnect=0;portConstraint=eastwest;newEdgeStyle={&quot;curved&quot;:0,&quot;rounded&quot;:0};" parent="1" vertex="1">
          <mxGeometry x="110" y="80" width="100" height="560" as="geometry" />
        </mxCell>
        <mxCell id="l3b0Gciy4JCBGXE4uqzS-9" value="서버" style="shape=umlLifeline;perimeter=lifelinePerimeter;whiteSpace=wrap;html=1;container=1;dropTarget=0;collapsible=0;recursiveResize=0;outlineConnect=0;portConstraint=eastwest;newEdgeStyle={&quot;curved&quot;:0,&quot;rounded&quot;:0};" parent="1" vertex="1">
          <mxGeometry x="630" y="80" width="100" height="560" as="geometry" />
        </mxCell>
        <mxCell id="l3b0Gciy4JCBGXE4uqzS-11" value="" style="html=1;points=[[0,0,0,0,5],[0,1,0,0,-5],[1,0,0,0,5],[1,1,0,0,-5]];perimeter=orthogonalPerimeter;outlineConnect=0;targetShapes=umlLifeline;portConstraint=eastwest;newEdgeStyle={&quot;curved&quot;:0,&quot;rounded&quot;:0};" parent="l3b0Gciy4JCBGXE4uqzS-9" vertex="1">
          <mxGeometry x="45" y="130" width="10" height="40" as="geometry" />
        </mxCell>
        <mxCell id="l3b0Gciy4JCBGXE4uqzS-26" value="" style="html=1;points=[[0,0,0,0,5],[0,1,0,0,-5],[1,0,0,0,5],[1,1,0,0,-5]];perimeter=orthogonalPerimeter;outlineConnect=0;targetShapes=umlLifeline;portConstraint=eastwest;newEdgeStyle={&quot;curved&quot;:0,&quot;rounded&quot;:0};" parent="l3b0Gciy4JCBGXE4uqzS-9" vertex="1">
          <mxGeometry x="45" y="400" width="10" height="80" as="geometry" />
        </mxCell>
        <mxCell id="l3b0Gciy4JCBGXE4uqzS-12" value="이메일 검증 요청(이메일 주소)" style="html=1;verticalAlign=bottom;endArrow=block;curved=0;rounded=0;entryX=0;entryY=0;entryDx=0;entryDy=5;" parent="1" source="l3b0Gciy4JCBGXE4uqzS-1" target="l3b0Gciy4JCBGXE4uqzS-11" edge="1">
          <mxGeometry relative="1" as="geometry">
            <mxPoint x="160" y="175" as="sourcePoint" />
          </mxGeometry>
        </mxCell>
        <mxCell id="l3b0Gciy4JCBGXE4uqzS-13" value="이메일 검증 여부 응답" style="html=1;verticalAlign=bottom;endArrow=open;dashed=1;endSize=8;curved=0;rounded=0;exitX=0;exitY=1;exitDx=0;exitDy=-5;" parent="1" source="l3b0Gciy4JCBGXE4uqzS-11" edge="1">
          <mxGeometry relative="1" as="geometry">
            <mxPoint x="160" y="245" as="targetPoint" />
          </mxGeometry>
        </mxCell>
        <mxCell id="l3b0Gciy4JCBGXE4uqzS-19" value="loop" style="shape=umlFrame;whiteSpace=wrap;html=1;pointerEvents=0;" parent="1" vertex="1">
          <mxGeometry x="110" y="170" width="605" height="90" as="geometry" />
        </mxCell>
        <mxCell id="l3b0Gciy4JCBGXE4uqzS-23" value="[이메일 검증 성공 시까지]" style="text;align=center;fontStyle=1;verticalAlign=middle;spacingLeft=3;spacingRight=3;strokeColor=none;rotatable=0;points=[[0,0.5],[1,0.5]];portConstraint=eastwest;html=1;" parent="1" vertex="1">
          <mxGeometry x="170" y="170" width="160" height="26" as="geometry" />
        </mxCell>
        <mxCell id="l3b0Gciy4JCBGXE4uqzS-24" value="ref" style="shape=umlFrame;whiteSpace=wrap;html=1;pointerEvents=0;" parent="1" vertex="1">
          <mxGeometry x="90" y="310" width="660" height="150" as="geometry" />
        </mxCell>
        <mxCell id="l3b0Gciy4JCBGXE4uqzS-25" value="회원가입 이메일 검증" style="text;align=center;fontStyle=1;verticalAlign=middle;spacingLeft=3;spacingRight=3;strokeColor=none;rotatable=0;points=[[0,0.5],[1,0.5]];portConstraint=eastwest;html=1;" parent="1" vertex="1">
          <mxGeometry x="150" y="310" width="150" height="26" as="geometry" />
        </mxCell>
        <mxCell id="l3b0Gciy4JCBGXE4uqzS-27" value="최종 폼 검증(이메일, 비밀번호, 활동 이름)" style="html=1;verticalAlign=bottom;endArrow=block;curved=0;rounded=0;entryX=0;entryY=0;entryDx=0;entryDy=5;" parent="1" target="l3b0Gciy4JCBGXE4uqzS-26" edge="1">
          <mxGeometry relative="1" as="geometry">
            <mxPoint x="160" y="485" as="sourcePoint" />
          </mxGeometry>
        </mxCell>
        <mxCell id="l3b0Gciy4JCBGXE4uqzS-28" value="회원 가입 성공 여부 반환" style="html=1;verticalAlign=bottom;endArrow=open;dashed=1;endSize=8;curved=0;rounded=0;exitX=0;exitY=1;exitDx=0;exitDy=-5;" parent="1" source="l3b0Gciy4JCBGXE4uqzS-26" edge="1">
          <mxGeometry relative="1" as="geometry">
            <mxPoint x="160" y="555" as="targetPoint" />
          </mxGeometry>
        </mxCell>
      </root>
    </mxGraphModel>
  </diagram>
  <diagram id="PySMfcJGl47N1OLztRX3" name="로그인 SD">
    <mxGraphModel dx="1434" dy="836" grid="1" gridSize="10" guides="1" tooltips="1" connect="1" arrows="1" fold="1" page="1" pageScale="1" pageWidth="827" pageHeight="1169" math="0" shadow="0">
      <root>
        <mxCell id="0" />
        <mxCell id="1" parent="0" />
        <mxCell id="akGz_crbnyhKbjtfhrZl-1" value="클라이언트" style="shape=umlLifeline;perimeter=lifelinePerimeter;whiteSpace=wrap;html=1;container=0;dropTarget=0;collapsible=0;recursiveResize=0;outlineConnect=0;portConstraint=eastwest;newEdgeStyle={&quot;edgeStyle&quot;:&quot;elbowEdgeStyle&quot;,&quot;elbow&quot;:&quot;vertical&quot;,&quot;curved&quot;:0,&quot;rounded&quot;:0};" parent="1" vertex="1">
          <mxGeometry x="40" y="40" width="100" height="280" as="geometry" />
        </mxCell>
        <mxCell id="akGz_crbnyhKbjtfhrZl-2" value="dispatch" style="html=1;verticalAlign=bottom;startArrow=oval;endArrow=block;startSize=8;edgeStyle=elbowEdgeStyle;elbow=vertical;curved=0;rounded=0;" parent="akGz_crbnyhKbjtfhrZl-1" edge="1">
          <mxGeometry relative="1" as="geometry">
            <mxPoint x="-15" y="70" as="sourcePoint" />
            <mxPoint x="45" y="70" as="targetPoint" />
          </mxGeometry>
        </mxCell>
        <mxCell id="akGz_crbnyhKbjtfhrZl-3" value="서버" style="shape=umlLifeline;perimeter=lifelinePerimeter;whiteSpace=wrap;html=1;container=1;dropTarget=0;collapsible=0;recursiveResize=0;outlineConnect=0;portConstraint=eastwest;newEdgeStyle={&quot;curved&quot;:0,&quot;rounded&quot;:0};" parent="1" vertex="1">
          <mxGeometry x="640" y="40" width="100" height="280" as="geometry" />
        </mxCell>
        <mxCell id="akGz_crbnyhKbjtfhrZl-4" value="" style="html=1;points=[[0,0,0,0,5],[0,1,0,0,-5],[1,0,0,0,5],[1,1,0,0,-5]];perimeter=orthogonalPerimeter;outlineConnect=0;targetShapes=umlLifeline;portConstraint=eastwest;newEdgeStyle={&quot;curved&quot;:0,&quot;rounded&quot;:0};" parent="akGz_crbnyhKbjtfhrZl-3" vertex="1">
          <mxGeometry x="45" y="80" width="10" height="80" as="geometry" />
        </mxCell>
        <mxCell id="akGz_crbnyhKbjtfhrZl-5" value="로그인 폼 전송(회원 이메일, 비밀번호)" style="html=1;verticalAlign=bottom;endArrow=block;curved=0;rounded=0;entryX=0;entryY=0;entryDx=0;entryDy=5;" parent="1" target="akGz_crbnyhKbjtfhrZl-4" edge="1">
          <mxGeometry relative="1" as="geometry">
            <mxPoint x="90" y="125" as="sourcePoint" />
          </mxGeometry>
        </mxCell>
        <mxCell id="akGz_crbnyhKbjtfhrZl-6" value="로그인 성공/실패 여부 반환" style="html=1;verticalAlign=bottom;endArrow=open;dashed=1;endSize=8;curved=0;rounded=0;exitX=0;exitY=1;exitDx=0;exitDy=-5;" parent="1" source="akGz_crbnyhKbjtfhrZl-4" edge="1">
          <mxGeometry relative="1" as="geometry">
            <mxPoint x="90" y="195" as="targetPoint" />
          </mxGeometry>
        </mxCell>
      </root>
    </mxGraphModel>
  </diagram>
  <diagram id="UchWwQxIq-aZl_m0-_z_" name="회원탈퇴 SD">
    <mxGraphModel dx="1434" dy="836" grid="1" gridSize="10" guides="1" tooltips="1" connect="1" arrows="1" fold="1" page="1" pageScale="1" pageWidth="827" pageHeight="1169" math="0" shadow="0">
      <root>
        <mxCell id="0" />
        <mxCell id="1" parent="0" />
        <mxCell id="6XproDCB5tXBUXWmEQgw-1" value="클라이언트" style="shape=umlLifeline;perimeter=lifelinePerimeter;whiteSpace=wrap;html=1;container=1;dropTarget=0;collapsible=0;recursiveResize=0;outlineConnect=0;portConstraint=eastwest;newEdgeStyle={&quot;curved&quot;:0,&quot;rounded&quot;:0};" parent="1" vertex="1">
          <mxGeometry x="40" y="40" width="100" height="300" as="geometry" />
        </mxCell>
        <mxCell id="6XproDCB5tXBUXWmEQgw-2" value="서버" style="shape=umlLifeline;perimeter=lifelinePerimeter;whiteSpace=wrap;html=1;container=1;dropTarget=0;collapsible=0;recursiveResize=0;outlineConnect=0;portConstraint=eastwest;newEdgeStyle={&quot;curved&quot;:0,&quot;rounded&quot;:0};" parent="1" vertex="1">
          <mxGeometry x="660" y="40" width="100" height="300" as="geometry" />
        </mxCell>
        <mxCell id="6XproDCB5tXBUXWmEQgw-3" value="" style="html=1;points=[[0,0,0,0,5],[0,1,0,0,-5],[1,0,0,0,5],[1,1,0,0,-5]];perimeter=orthogonalPerimeter;outlineConnect=0;targetShapes=umlLifeline;portConstraint=eastwest;newEdgeStyle={&quot;curved&quot;:0,&quot;rounded&quot;:0};" parent="6XproDCB5tXBUXWmEQgw-2" vertex="1">
          <mxGeometry x="45" y="120" width="10" height="80" as="geometry" />
        </mxCell>
        <mxCell id="6XproDCB5tXBUXWmEQgw-4" value="dispatch" style="html=1;verticalAlign=bottom;startArrow=oval;startFill=1;endArrow=block;startSize=8;curved=0;rounded=0;" parent="1" edge="1">
          <mxGeometry width="60" relative="1" as="geometry">
            <mxPoint x="30" y="130" as="sourcePoint" />
            <mxPoint x="90" y="130" as="targetPoint" />
          </mxGeometry>
        </mxCell>
        <mxCell id="6XproDCB5tXBUXWmEQgw-5" value="회원 탈퇴 요청(세션 ID,&amp;nbsp;&lt;span style=&quot;background-color: light-dark(#ffffff, var(--ge-dark-color, #121212)); color: light-dark(rgb(0, 0, 0), rgb(255, 255, 255));&quot;&gt;비밀번호)&lt;/span&gt;" style="html=1;verticalAlign=bottom;endArrow=block;curved=0;rounded=0;entryX=0;entryY=0;entryDx=0;entryDy=5;" parent="1" target="6XproDCB5tXBUXWmEQgw-3" edge="1">
          <mxGeometry relative="1" as="geometry">
            <mxPoint x="90" y="165" as="sourcePoint" />
          </mxGeometry>
        </mxCell>
        <mxCell id="6XproDCB5tXBUXWmEQgw-6" value="회원탈퇴 성공 여부 반환" style="html=1;verticalAlign=bottom;endArrow=open;dashed=1;endSize=8;curved=0;rounded=0;exitX=0;exitY=1;exitDx=0;exitDy=-5;" parent="1" source="6XproDCB5tXBUXWmEQgw-3" edge="1">
          <mxGeometry relative="1" as="geometry">
            <mxPoint x="90" y="235" as="targetPoint" />
          </mxGeometry>
        </mxCell>
      </root>
    </mxGraphModel>
  </diagram>
  <diagram id="GB30vaJQ4zV2kqP_mJb4" name="로그아웃 SD">
    <mxGraphModel dx="1434" dy="836" grid="1" gridSize="10" guides="1" tooltips="1" connect="1" arrows="1" fold="1" page="1" pageScale="1" pageWidth="827" pageHeight="1169" math="0" shadow="0">
      <root>
        <mxCell id="0" />
        <mxCell id="1" parent="0" />
        <mxCell id="rrQ3gXC6PRQrpFs7wTEv-1" value="클라이언트" style="shape=umlLifeline;perimeter=lifelinePerimeter;whiteSpace=wrap;html=1;container=1;dropTarget=0;collapsible=0;recursiveResize=0;outlineConnect=0;portConstraint=eastwest;newEdgeStyle={&quot;curved&quot;:0,&quot;rounded&quot;:0};" vertex="1" parent="1">
          <mxGeometry x="80" y="80" width="100" height="300" as="geometry" />
        </mxCell>
        <mxCell id="rrQ3gXC6PRQrpFs7wTEv-2" value="서버" style="shape=umlLifeline;perimeter=lifelinePerimeter;whiteSpace=wrap;html=1;container=1;dropTarget=0;collapsible=0;recursiveResize=0;outlineConnect=0;portConstraint=eastwest;newEdgeStyle={&quot;curved&quot;:0,&quot;rounded&quot;:0};" vertex="1" parent="1">
          <mxGeometry x="660" y="80" width="100" height="300" as="geometry" />
        </mxCell>
        <mxCell id="rrQ3gXC6PRQrpFs7wTEv-4" value="" style="html=1;points=[[0,0,0,0,5],[0,1,0,0,-5],[1,0,0,0,5],[1,1,0,0,-5]];perimeter=orthogonalPerimeter;outlineConnect=0;targetShapes=umlLifeline;portConstraint=eastwest;newEdgeStyle={&quot;curved&quot;:0,&quot;rounded&quot;:0};" vertex="1" parent="rrQ3gXC6PRQrpFs7wTEv-2">
          <mxGeometry x="45" y="90" width="10" height="80" as="geometry" />
        </mxCell>
        <mxCell id="rrQ3gXC6PRQrpFs7wTEv-3" value="dispatch" style="html=1;verticalAlign=bottom;startArrow=oval;startFill=1;endArrow=block;startSize=8;curved=0;rounded=0;" edge="1" parent="1">
          <mxGeometry width="60" relative="1" as="geometry">
            <mxPoint x="70" y="150" as="sourcePoint" />
            <mxPoint x="130" y="150" as="targetPoint" />
          </mxGeometry>
        </mxCell>
        <mxCell id="rrQ3gXC6PRQrpFs7wTEv-5" value="로그아웃 요청(세션 ID&lt;span style=&quot;background-color: light-dark(#ffffff, var(--ge-dark-color, #121212)); color: light-dark(rgb(0, 0, 0), rgb(255, 255, 255));&quot;&gt;)&lt;/span&gt;" style="html=1;verticalAlign=bottom;endArrow=block;curved=0;rounded=0;entryX=0;entryY=0;entryDx=0;entryDy=5;" edge="1" target="rrQ3gXC6PRQrpFs7wTEv-4" parent="1">
          <mxGeometry relative="1" as="geometry">
            <mxPoint x="130" y="175" as="sourcePoint" />
          </mxGeometry>
        </mxCell>
        <mxCell id="rrQ3gXC6PRQrpFs7wTEv-6" value="로그아웃 성공 여부 반환" style="html=1;verticalAlign=bottom;endArrow=open;dashed=1;endSize=8;curved=0;rounded=0;exitX=0;exitY=1;exitDx=0;exitDy=-5;" edge="1" source="rrQ3gXC6PRQrpFs7wTEv-4" parent="1">
          <mxGeometry relative="1" as="geometry">
            <mxPoint x="130" y="245" as="targetPoint" />
          </mxGeometry>
        </mxCell>
      </root>
    </mxGraphModel>
  </diagram>
  <diagram id="Yql1msYwXPaMkscKYAVu" name="로그인 상태 검증 SD">
    <mxGraphModel dx="1434" dy="836" grid="1" gridSize="10" guides="1" tooltips="1" connect="1" arrows="1" fold="1" page="1" pageScale="1" pageWidth="827" pageHeight="1169" math="0" shadow="0">
      <root>
        <mxCell id="0" />
        <mxCell id="1" parent="0" />
        <mxCell id="3-C1ETMMfzviXFe4WnV0-1" value="클라이언트" style="shape=umlLifeline;perimeter=lifelinePerimeter;whiteSpace=wrap;html=1;container=1;dropTarget=0;collapsible=0;recursiveResize=0;outlineConnect=0;portConstraint=eastwest;newEdgeStyle={&quot;curved&quot;:0,&quot;rounded&quot;:0};" parent="1" vertex="1">
          <mxGeometry x="40" y="40" width="100" height="300" as="geometry" />
        </mxCell>
        <mxCell id="3-C1ETMMfzviXFe4WnV0-2" value="서버" style="shape=umlLifeline;perimeter=lifelinePerimeter;whiteSpace=wrap;html=1;container=1;dropTarget=0;collapsible=0;recursiveResize=0;outlineConnect=0;portConstraint=eastwest;newEdgeStyle={&quot;curved&quot;:0,&quot;rounded&quot;:0};" parent="1" vertex="1">
          <mxGeometry x="660" y="40" width="100" height="300" as="geometry" />
        </mxCell>
        <mxCell id="wslVehqkGplJlhtJBi8y-1" value="" style="html=1;points=[[0,0,0,0,5],[0,1,0,0,-5],[1,0,0,0,5],[1,1,0,0,-5]];perimeter=orthogonalPerimeter;outlineConnect=0;targetShapes=umlLifeline;portConstraint=eastwest;newEdgeStyle={&quot;curved&quot;:0,&quot;rounded&quot;:0};" parent="3-C1ETMMfzviXFe4WnV0-2" vertex="1">
          <mxGeometry x="45" y="80" width="10" height="80" as="geometry" />
        </mxCell>
        <mxCell id="wslVehqkGplJlhtJBi8y-2" value="로그인 상태 검증 요청(세션 ID&lt;span style=&quot;background-color: light-dark(#ffffff, var(--ge-dark-color, #121212)); color: light-dark(rgb(0, 0, 0), rgb(255, 255, 255));&quot;&gt;)&lt;/span&gt;" style="html=1;verticalAlign=bottom;endArrow=block;curved=0;rounded=0;entryX=0;entryY=0;entryDx=0;entryDy=5;" parent="1" target="wslVehqkGplJlhtJBi8y-1" edge="1">
          <mxGeometry relative="1" as="geometry">
            <mxPoint x="90" y="125" as="sourcePoint" />
          </mxGeometry>
        </mxCell>
        <mxCell id="wslVehqkGplJlhtJBi8y-3" value="로그인 상태 여부 반환" style="html=1;verticalAlign=bottom;endArrow=open;dashed=1;endSize=8;curved=0;rounded=0;exitX=0;exitY=1;exitDx=0;exitDy=-5;" parent="1" source="wslVehqkGplJlhtJBi8y-1" edge="1">
          <mxGeometry relative="1" as="geometry">
            <mxPoint x="90" y="195" as="targetPoint" />
          </mxGeometry>
        </mxCell>
      </root>
    </mxGraphModel>
  </diagram>
  <diagram id="tDAXasr4jiomPYjNCRAr" name="비밀번호 초기화 SD">
    <mxGraphModel dx="1434" dy="836" grid="1" gridSize="10" guides="1" tooltips="1" connect="1" arrows="1" fold="1" page="1" pageScale="1" pageWidth="827" pageHeight="1169" math="0" shadow="0">
      <root>
        <mxCell id="0" />
        <mxCell id="1" parent="0" />
        <mxCell id="_tYJHkmMqlR3NhCnt6_c-1" value="클라이언트" style="shape=umlLifeline;perimeter=lifelinePerimeter;whiteSpace=wrap;html=1;container=1;dropTarget=0;collapsible=0;recursiveResize=0;outlineConnect=0;portConstraint=eastwest;newEdgeStyle={&quot;curved&quot;:0,&quot;rounded&quot;:0};" parent="1" vertex="1">
          <mxGeometry x="60" y="80" width="100" height="300" as="geometry" />
        </mxCell>
        <mxCell id="_tYJHkmMqlR3NhCnt6_c-2" value="서버" style="shape=umlLifeline;perimeter=lifelinePerimeter;whiteSpace=wrap;html=1;container=1;dropTarget=0;collapsible=0;recursiveResize=0;outlineConnect=0;portConstraint=eastwest;newEdgeStyle={&quot;curved&quot;:0,&quot;rounded&quot;:0};" parent="1" vertex="1">
          <mxGeometry x="660" y="80" width="100" height="300" as="geometry" />
        </mxCell>
        <mxCell id="_tYJHkmMqlR3NhCnt6_c-3" value="" style="html=1;points=[[0,0,0,0,5],[0,1,0,0,-5],[1,0,0,0,5],[1,1,0,0,-5]];perimeter=orthogonalPerimeter;outlineConnect=0;targetShapes=umlLifeline;portConstraint=eastwest;newEdgeStyle={&quot;curved&quot;:0,&quot;rounded&quot;:0};" parent="_tYJHkmMqlR3NhCnt6_c-2" vertex="1">
          <mxGeometry x="45" y="160" width="10" height="80" as="geometry" />
        </mxCell>
        <mxCell id="_tYJHkmMqlR3NhCnt6_c-4" value="변경하고자 하는 비밀번호 검증(세션 ID, 비밀번호)" style="html=1;verticalAlign=bottom;endArrow=block;curved=0;rounded=0;entryX=0;entryY=0;entryDx=0;entryDy=5;" parent="1" source="_tYJHkmMqlR3NhCnt6_c-1" target="_tYJHkmMqlR3NhCnt6_c-3" edge="1">
          <mxGeometry relative="1" as="geometry">
            <mxPoint x="110" y="165" as="sourcePoint" />
          </mxGeometry>
        </mxCell>
        <mxCell id="_tYJHkmMqlR3NhCnt6_c-5" value="비밀번호 변경 성공 여부 반환" style="html=1;verticalAlign=bottom;endArrow=open;dashed=1;endSize=8;curved=0;rounded=0;exitX=0;exitY=1;exitDx=0;exitDy=-5;" parent="1" source="_tYJHkmMqlR3NhCnt6_c-3" target="_tYJHkmMqlR3NhCnt6_c-1" edge="1">
          <mxGeometry relative="1" as="geometry">
            <mxPoint x="110" y="235" as="targetPoint" />
          </mxGeometry>
        </mxCell>
        <mxCell id="_tYJHkmMqlR3NhCnt6_c-6" value="ref" style="shape=umlFrame;whiteSpace=wrap;html=1;pointerEvents=0;" parent="1" vertex="1">
          <mxGeometry x="80" y="140" width="670" height="70" as="geometry" />
        </mxCell>
        <mxCell id="_tYJHkmMqlR3NhCnt6_c-7" value="비밀번호 초기화 이메일 검증" style="text;align=center;fontStyle=1;verticalAlign=middle;spacingLeft=3;spacingRight=3;strokeColor=none;rotatable=0;points=[[0,0.5],[1,0.5]];portConstraint=eastwest;html=1;" parent="1" vertex="1">
          <mxGeometry x="140" y="140" width="190" height="26" as="geometry" />
        </mxCell>
      </root>
    </mxGraphModel>
  </diagram>
</mxfile>
